<svg width="28" height="28" viewBox="0 0 28 28" fill="none" xmlns="http://www.w3.org/2000/svg">
<g id="1">
<g id="Group 1">
<path id="Rectangle 4" d="M4 1H3V2V18C3 22.9706 7.02944 27 12 27H24H25V26V10C25 5.02944 20.9706 1 16 1H4Z" stroke="#394697" stroke-width="2"/>
</g>
<path id="Vector" d="M19.7206 15.5266C18.7495 14.568 16.0979 14.9586 15.4631 15.0295C14.5295 14.1774 13.8946 13.1478 13.6705 12.7928C14.0066 11.8342 14.2306 10.8756 14.268 9.84614C14.268 8.95852 13.8946 8 12.8488 8C12.4754 8 12.1392 8.21295 11.9525 8.49697C11.5044 9.24261 11.691 10.7338 12.4006 12.2604C11.9899 13.3609 11.6164 14.426 10.5707 16.3077C9.48762 16.7336 7.20946 17.7278 7.02271 18.793C6.94804 19.1124 7.06004 19.432 7.32147 19.6805C7.58289 19.8935 7.91899 20 8.25517 20C9.63696 20 10.9814 18.1894 11.9151 16.6627C12.6994 16.4142 13.9319 16.0591 15.1643 15.8461C16.6208 17.0532 17.8906 17.2307 18.5628 17.2307C19.4591 17.2307 19.7953 16.8757 19.9073 16.5561C20.094 16.2012 19.982 15.8106 19.7206 15.5266ZM18.7868 16.1302C18.7495 16.3787 18.4135 16.6272 17.8159 16.4852C17.1063 16.3077 16.4714 15.9881 15.9113 15.5621C16.3968 15.491 17.4797 15.3845 18.2641 15.5266C18.5628 15.5976 18.8616 15.7751 18.7868 16.1302ZM12.5501 8.81648C12.6247 8.71 12.7368 8.63901 12.8488 8.63901C13.1849 8.63901 13.2596 9.02951 13.2596 9.34909C13.2222 10.0947 13.0728 10.8402 12.8115 11.5503C12.2512 10.1302 12.3633 9.13598 12.5501 8.81648ZM12.4754 15.7041C12.7741 15.1361 13.185 14.1419 13.3343 13.7159C13.6704 14.2483 14.2306 14.8875 14.5295 15.1715C14.5295 15.2071 13.3717 15.42 12.4754 15.7041ZM10.2719 17.1243C9.41295 18.4734 8.51659 19.3254 8.03107 19.3254C7.95641 19.3254 7.88165 19.2899 7.80698 19.2544C7.6949 19.1834 7.65756 19.0769 7.6949 18.9349C7.80698 18.4379 8.77802 17.7633 10.2719 17.1243Z" fill="#394697"/>
</g>
</svg>
