<svg width="24" height="24" viewBox="0 0 24 24" fill="none" xmlns="http://www.w3.org/2000/svg">
<g id="Phone">
<path id="Vector" d="M8.67188 11.7002C9.44364 13.2939 10.7324 14.5794 12.3281 15.3471C12.4458 15.4028 12.576 15.4269 12.7059 15.4171C12.8358 15.4072 12.9608 15.3637 13.0688 15.2908L15.4125 13.7252C15.5161 13.6549 15.6357 13.6121 15.7603 13.6006C15.8849 13.5891 16.0104 13.6094 16.125 13.6596L20.5125 15.5439C20.6625 15.6063 20.7877 15.7163 20.869 15.8569C20.9504 15.9975 20.9832 16.161 20.9625 16.3221C20.8234 17.4074 20.2937 18.405 19.4723 19.128C18.6509 19.851 17.5943 20.2499 16.5 20.2502C13.1185 20.2502 9.87548 18.9069 7.48439 16.5158C5.0933 14.1247 3.75 10.8817 3.75 7.50018C3.75025 6.40593 4.1492 5.34926 4.87221 4.52789C5.59522 3.70652 6.59274 3.17674 7.67813 3.03768C7.83922 3.01699 8.00266 3.04983 8.14326 3.13114C8.28386 3.21245 8.39384 3.33773 8.45625 3.48768L10.3406 7.88456C10.3896 7.99738 10.4101 8.12053 10.4003 8.24315C10.3905 8.36576 10.3507 8.48408 10.2844 8.58768L8.71875 10.9689C8.64905 11.0766 8.60814 11.2004 8.59993 11.3284C8.59172 11.4565 8.6165 11.5845 8.67188 11.7002V11.7002Z" fill="#394697"/>
</g>
</svg>
